<?xml version="1.0" encoding="utf-8"?>
<!-- Generator: Adobe Illustrator 27.6.1, SVG Export Plug-In . SVG Version: 6.00 Build 0)  -->
<svg version="1.1" id="Layer_1" xmlns="http://www.w3.org/2000/svg" xmlns:xlink="http://www.w3.org/1999/xlink" x="0px" y="0px"
	 viewBox="0 0 1920 1080" style="enable-background:new 0 0 1920 1080;" xml:space="preserve">
<style type="text/css">
	.st0{fill:#DC413C;}
</style>
<g>
	<g>
		<path class="st0" d="M939.42,644.75c0.78,3.99,0.61,8.07-0.69,11.94c-1.15,3.41-3.71,6.57-2.72,10.4
			c1.96,7.51,11.57,6.61,17.49,6.94c4.52,0.25,9.04,0.5,13.56,0.75c3.66,0.2,8.39,1.18,11.98,0c7.72-2.52,6.75-12.74,6.73-19.2
			c-0.01-5.68,1.35-17.89-5.52-20.24c-3.25-1.11-5.77,0.94-8.98,0.92c-3.29-0.02-6.59-1.21-9.82-1.7
			c-6.41-0.97-13.3-0.55-15.14,6.76c-1.05,4.18-1.32,8.87-1.84,13.14c-0.45,3.68-0.54,7.23,0.84,10.74
			c1.94,4.93,7.76,5.75,10.88,1.42c5.28-7.33,9-15.57,11.08-24.36c-3.83,0-7.65,0-11.48,0c2.53,7.1,4.36,14.4,5.2,21.9
			c0.83,7.44,11.77,7.85,11.91,0c0.1-5.95,0.2-11.9,0.3-17.85c-3.97,0-7.94,0-11.91,0c0.04,1.13,0.49,3.21-0.22,4.06
			c-0.4,0.49-2.07,0.31-2.63,0.42c-1.97,0.39-3.69,1.52-4.53,3.39c-1.65,3.68,0.18,9.4,5.14,8.96c9.87-0.89,18.22-7.38,20.36-17.3
			c1.61-7.47-9.86-10.66-11.48-3.17c-0.96,4.43-4.13,8.13-8.88,8.56c1.71,2.99,3.43,5.97,5.14,8.96c0.08-0.17,0.15-0.34,0.23-0.52
			c-1.19,0.91-2.37,1.82-3.56,2.74c1.01-0.19,2.84,0.17,4.27-0.34c1.88-0.67,3.51-1.83,4.82-3.33c3.03-3.46,3.39-8.05,3.23-12.44
			c-0.28-7.64-11.78-7.69-11.91,0c-0.1,5.95-0.2,11.9-0.3,17.85c3.97,0,7.94,0,11.91,0c-0.96-8.6-2.72-16.9-5.63-25.06
			c-1.85-5.2-10.03-6.1-11.48,0c-1.88,7.9-5.13,14.92-9.88,21.51c3.63,0.47,7.25,0.95,10.88,1.42c-1.47-3.75-0.38-7.91,0.16-11.78
			c0.04-0.25,0.88-5.76,0.83-5.78c-2.32,1.36-2.4,1.87-0.23,1.54c0.76,0.02,1.51,0.1,2.25,0.26c3.34,0.52,6.58,1.5,9.97,1.78
			c1.5,0.12,2.92,0.11,4.4-0.07c1.02-0.09,2.02-0.27,3-0.55c1.9-0.5,1.86-0.71-0.11-0.63c-1.39-1.39-2.77-2.77-4.16-4.16
			c2.13,6.07,0.09,13.12,0.77,19.33c-0.65,1.68-0.49,2.2,0.49,1.57c1.22-0.42,0.78-0.54-1.33-0.37c-1.58-0.23-3.25-0.18-4.84-0.27
			c-3.55-0.2-7.1-0.39-10.65-0.59c-2.63-0.15-7.19-1.3-9.69-0.54c-2.33-0.71-2.66-0.03-1,2.03c0.5,2.64,1.07,2.85,1.69,0.62
			c0.9-1.01,1.44-3.37,1.83-4.59c1.92-5.96,1.87-12.18,0.69-18.27C949.45,634.07,937.97,637.25,939.42,644.75L939.42,644.75z"/>
	</g>
</g>
<g>
	<g>
		<g>
			<path class="st0" d="M927.47,404.16c-17.27,1.06-36.95,7.44-45.72,23.49c-8.95,16.38-16.71,33.97-20.32,52.35
				c-3.51,17.89-3.68,36.16-0.76,54.14c2.8,17.24,8.29,36.39,18.96,50.51c6.5,8.59,14.65,16,22.45,23.38
				c8.24,7.79,16.73,15.31,25.42,22.6c3.48,2.92,10.76,1.42,10.16-4.21c-2.1-19.95-5.63-40.59-12.67-59.46
				c-3.01-8.06-9.3-11.67-17.77-11.52c-10.51,0.19-20.73,1.21-31.27,0.44c1.91,2.51,3.83,5.02,5.74,7.54
				c1.04-6.13,2.52-12.12,4.44-18.03c-3.83,0-7.65,0-11.48,0c1.96,4.99,3.47,10.15,4.12,15.48c3.9-0.53,7.8-1.06,11.69-1.58
				c-2.32-6.03-3.05-11.89-2.29-18.31c-2.51,1.91-5.02,3.83-7.54,5.74c10.38,2.08,20.7,1.98,31.03-0.38
				c2.53-0.58,4.38-3.21,4.37-5.74c-0.02-9.74-0.06-19.49-0.13-29.23c-0.07-9.68,0.4-19.58-0.28-29.23
				c-0.71-10.24-10.44-8.56-18.13-8.46c-9.54,0.13-19.09,0.25-28.63,0.38c1.98,1.98,3.97,3.97,5.95,5.95
				c0.01-2.65,0.22-5.14,0.91-7.71c0.72-2.71,1.08-2.37,3.83-2.93c4.37-0.89,8.81-1.38,13.26-1.56c7.86-0.31,16.11,0.65,22.33-5.22
				c5.53-5.21,7.75-13.79,10.09-20.76c2.99-8.88,5.42-17.92,7.4-27.08c1.62-7.47-9.86-10.66-11.48-3.17
				c-1.98,9.15-4.42,18.2-7.4,27.08c-1.42,4.22-2.66,8.88-4.93,12.74c-2.31,3.95-5.47,4.37-9.8,4.42
				c-8.63,0.09-18.16,0.16-26.42,3.01c-8.44,2.91-9.66,13.44-9.7,21.17c-0.02,3.19,2.74,6,5.95,5.95
				c8.27-0.11,16.54-0.22,24.81-0.33c3.69-0.05,7.82,0.46,11.45-0.15c3.29,0.41,2.82-0.7-1.41-3.35c0.01,0.65,0.02,1.3,0.02,1.95
				c-0.51,1.95,0.05,4.79,0.07,6.82c0.17,16.56,0.27,33.13,0.31,49.69c1.46-1.91,2.91-3.83,4.37-5.74
				c-8.19,1.87-16.46,2.03-24.7,0.38c-4.13-0.83-7.06,1.74-7.54,5.74c-0.86,7.31,0.07,14.61,2.71,21.47
				c2.19,5.68,12.58,5.63,11.69-1.58c-0.8-6.46-2.16-12.58-4.55-18.65c-2.11-5.36-9.56-5.91-11.48,0c-1.92,5.91-3.4,11.9-4.44,18.03
				c-0.68,3.99,1.61,7.24,5.74,7.54c9.09,0.66,18.11,0.54,27.19-0.17c2.45-0.19,5.47-0.82,7.84,0.02c3.19,1.12,3.84,6.43,4.73,9.33
				c4.9,16.13,8.28,32.69,10.05,49.46c3.39-1.4,6.78-2.81,10.16-4.21c-13.47-11.3-26.49-23.16-38.82-35.71
				c-11.82-12.04-18.14-26.54-22.29-42.76c-8.36-32.67-4.06-66.06,10.37-96.31c3.9-8.17,7.28-17.99,15.24-23.03
				c8.05-5.1,17.59-7.76,27.05-8.34C935.09,415.6,935.14,403.69,927.47,404.16L927.47,404.16z"/>
		</g>
	</g>
</g>
<g>
	<g>
		<path class="st0" d="M986.09,612.54c-4.46,1.36-8.56,3.92-9.04,8.97c-0.4,4.17,2.31,8.38,6.63,8.97c5.4,0.73,9.69-4.3,13.47-7.41
			c4.64-3.81,9.26-7.65,13.8-11.57c8.61-7.43,16.96-15.19,24.61-23.62c7.33-8.07,15.22-16.87,17.76-27.76
			c1.17-5.02-4.12-9.35-8.75-6.72c-5.26,2.99-10.97,4.79-17.04,4.95c-1.38,0.04-2.85-0.2-4.21-0.1c-0.59-0.06-1.18-0.12-1.77-0.19
			c1.27,1.4,1.71,1.41,1.32,0.05c0.79-1.85-0.92-8.22-1.15-10.19c-1.98,1.98-3.97,3.97-5.95,5.95c9.89,0.29,19.84-0.7,29.44-3.14
			c7.97-2.02,15.3-5.31,15.83-14.54c0.51-8.96-1.82-18.36-3.43-27.12c-1.76-9.62-3.23-19.15-2.3-28.95c0.37-3.86-4.1-6.76-7.54-5.74
			c-6.18,1.83-12.44,1.68-18.78,0.7c-2.29-0.35-10.32-0.59-7.76-5.16c1.78-3.17,8.92-1.85,11.79-1.84
			c6.61,0.02,13.13-1.06,19.39-3.13c4.9-1.62,5.84-8.08,1.42-10.88c-5.56-3.53-7.51-11.37-11.55-16.37
			c-2.35-2.91-5.18-5.11-8.68-6.46c-4.26-1.65-9.47-1.31-13.18-4.17c-5.97-4.61-8.51-12.42-14.76-16.95
			c-7.67-5.56-16.55-1.18-25.24-1.89c-8.69-0.71-17.37-2.77-26.04-0.68c-8.32,2.01-14.79,8.15-18.4,15.76
			c-4.19,8.84-4.53,18.52-5.65,28.06c-1.24,10.53-4.78,20.62-6.22,31.11c-1.62,11.76,0.5,22.67,4.19,33.83
			c0.92,2.79,2.26,5.85,2.24,8.84c-0.01,2.64-1.1,5.09-2,7.53c-1.81,4.85-2.98,9.43-1.56,14.55c0.63,2.28,3.19,4.67,5.74,4.37
			c12.92-1.5,26.03-1.46,38.89,0.64c5.6,0.91,11.27,2.3,16.76,0.14c4.62-1.82,7.7-5.7,9.46-10.25c3.89-10.07,3.3-22.76,2.66-33.34
			c-0.77-12.66-3.14-25.17-7.03-37.24c-0.76-2.35-3.09-4.56-5.74-4.37c-17.3,1.26-34.6,2.4-51.91,3.4
			c-3.23,0.19-5.93,2.58-5.95,5.95c-0.06,7.18,0.22,14.76,4.15,21.05c2.25,3.6,4.21,5.91,4.47,10.35c0.24,4.08-0.01,8.16-0.9,12.15
			c-1.34,6.04-6.73,13.65-1.85,19.31c2.29,2.66,5.63,2.91,8.91,3.39c4.74,0.69,9.49,1.29,14.25,1.76c4.23,0.42,8.48,0.75,12.73,0.97
			c3.93,0.21,8.52,0.96,12.13-1.05c5.5-3.05,8.33-12.18,9.8-17.87c3.38-13.13,1.77-27.35-4.44-39.38
			c-3.54-6.85-7.66-13.24-16.13-11.98c-10.03,1.49-19.9,2.1-30.04,1.43c-7.65-0.51-7.62,11.4,0,11.91
			c8.73,0.58,17.42,0.34,26.09-0.77c1.48-0.19,3.94-1.12,5.28-0.76c0.26-0.91,0.63-0.72,1.11,0.6c0.43,0.59,0.84,1.19,1.23,1.81
			c1.7,2.64,3.13,5.42,4.19,8.38c2.2,6.19,2.99,12.75,2.38,19.29c-0.29,3.1-0.99,6.16-1.95,9.12c-0.64,1.98-2.24,6.82-3.74,7.63
			c-1.16,0.62-4.43-0.17-5.89-0.25c-2.61-0.14-5.23-0.32-7.84-0.53c-3.91-0.32-7.82-0.72-11.72-1.2c-0.59-0.07-8.05-1.37-8.14-1.17
			c0.6,0.88,1.2,1.75,1.8,2.63c0.34-0.89,0.7-1.78,1.08-2.66c1.44-3.79,2.43-7.66,3.02-11.68c1-6.89,1.47-15.33-1.69-21.75
			c-1.74-3.53-4.61-5.94-5.62-9.87c-0.91-3.52-0.78-7.24-0.75-10.84c-1.98,1.98-3.97,3.97-5.95,5.95c17.31-1,34.62-2.14,51.91-3.4
			c-1.91-1.46-3.83-2.91-5.74-4.37c3.18,9.87,5.43,20.01,6.33,30.35c0.84,9.67,1.41,20.54-0.76,30.08
			c-0.87,3.83-2.11,6.59-6.47,6.53c-5.14-0.07-10.41-1.61-15.53-2.18c-10.92-1.2-21.9-1.06-32.81,0.2c1.91,1.46,3.83,2.91,5.74,4.37
			c-0.97-3.51,1.23-7.14,2.38-10.4c1.47-4.2,1.91-8.34,1.14-12.74c-1.66-9.43-6.28-17.92-6.65-27.68
			c-0.36-9.4,2.39-18.49,4.45-27.56c2.11-9.32,2.33-18.81,4.12-28.15c1.41-7.37,4.51-15.49,12.24-18.12
			c7.35-2.5,16.03-0.05,23.5,0.64c3.91,0.36,7.76,0.4,11.65-0.17c4.34-0.63,6.26-1.71,9.59,1.78c4.64,4.86,7.37,11.17,12.9,15.25
			c6.5,4.79,15.84,2.85,20.52,9.96c4.19,6.38,6.79,13.21,13.52,17.47c0.47-3.63,0.95-7.25,1.42-10.88
			c-4.7,1.56-9.45,2.57-14.41,2.69c-4.28,0.1-8.51-0.35-12.76,0.43c-7.51,1.37-13.11,7.27-13.03,15.08
			c0.07,7.56,5.31,12.63,12.39,14.11c9.72,2.04,19.86,2.93,29.5,0.07c-2.51-1.91-5.02-3.83-7.54-5.74
			c-1.48,15.53,3.05,30.46,5.03,45.71c0.28,2.17,1.86,8.85,0.61,10.83c-1.21,1.92-6.88,2.57-8.82,3.02
			c-8.06,1.87-16.2,2.51-24.46,2.27c-2.96-0.09-6.31,2.81-5.95,5.95c0.56,4.96,0.4,10.87,1.86,15.66c1.44,4.71,5.56,5.93,9.96,6.42
			c10.08,1.11,20.18-1.33,28.95-6.32c-2.92-2.24-5.83-4.48-8.75-6.72c-1.55,6.65-5.66,11.96-9.97,17.1
			c-4.81,5.73-9.98,11.14-15.36,16.33c-5.18,4.99-10.56,9.78-16.02,14.45c-2.74,2.34-5.5,4.65-8.28,6.95
			c-2.29,1.89-6.35,6.58-9.32,7.1c1.53,0.2,3.06,0.4,4.59,0.6c-1.14,4.16-0.55,5.68,1.78,4.54
			C996.56,621.79,993.45,610.29,986.09,612.54L986.09,612.54z"/>
	</g>
</g>
<g>
	<g>
		<path class="st0" d="M937.19,459.99c9.54-3.96,20.39,0.58,30.17,1.65c9.02,0.99,20.56,2.1,25.54-7.27
			c4.25-8,4.51-18.51,2.48-27.16c-1.05-4.48-2.81-8.97-6.49-11.91c-2.92-2.34-7.41-2.65-9.77-5.52c-4.87-5.92-13.25,2.54-8.42,8.42
			c2.08,2.54,4.76,3.71,7.71,4.93c3.65,1.51,4.55,3.25,5.48,7.25c0.77,3.34,0.99,6.83,0.62,10.24c-0.28,2.66-0.76,8.09-3.56,9.4
			c-3,1.41-8.62,0.17-11.73-0.11c-4.03-0.36-7.97-1.15-11.95-1.91c-7.77-1.48-15.74-2.63-23.27,0.49
			C927.05,451.4,930.11,462.92,937.19,459.99L937.19,459.99z"/>
	</g>
</g>
<g>
	<g>
		<path class="st0" d="M936.16,571.35c10.16-0.22,20.33-0.61,30.49-0.66c2.37-0.01,4.77-0.02,7.13,0.25
			c1.35,0.16,5.42,0.36,6.34,1.52c1.6,2.02-0.95,8.48-1.61,10.69c-2.67,8.87-10.7,11.62-16.56,18.02
			c-5.62,6.14-9.44,13.67-11.05,21.83c3.63-0.47,7.25-0.95,10.88-1.42c-11.35-15.67-17.92-34-18.67-53.36
			c-0.3-7.64-12.2-7.68-11.91,0c0.83,21.35,7.74,42.04,20.3,59.37c2.71,3.74,9.8,4.08,10.88-1.42c2.19-11.12,8.48-17.47,17.15-24.1
			c8.15-6.24,11.46-16.08,12.69-25.99c1.47-11.9-8.25-16.05-18.44-17.03c-12.35-1.19-25.23,0.13-37.62,0.41
			C928.51,559.61,928.48,571.52,936.16,571.35L936.16,571.35z"/>
	</g>
</g>
<g>
	<g>
		<path class="st0" d="M987.62,628.51c8.78-4.37,15.92-11.09,21.05-19.42c3.19-5.18-3.07-10.99-8.15-8.15
			c-7.18,4.03-13.56,9.19-18.94,15.43c-4.95,5.74,3.01,13.97,8.42,8.42c7.76-7.97,15.46-17.98,20.34-28.02
			c4.98-10.24,3.95-22.98,4.53-34.09c-3.39,1.4-6.78,2.81-10.16,4.21c1.94,1.94,3.88,3.89,5.81,5.83c0.4-3.12,0.8-6.23,1.2-9.35
			c-5.18,3.1-7.49,8.03-9.63,13.46c-2.5,6.32-4.39,12.84-5.83,19.47c-1.62,7.47,9.85,10.66,11.48,3.17
			c1.05-4.83,2.31-9.59,3.91-14.27c1.26-3.69,2.5-9.41,6.08-11.55c3.29-1.97,3.93-6.61,1.2-9.35c-1.94-1.94-3.88-3.89-5.81-5.83
			c-3.79-3.8-9.9-0.83-10.16,4.21c-0.49,9.3,0.82,21.08-3.66,29.54c-4.58,8.64-10.92,17.17-17.72,24.15
			c2.81,2.81,5.61,5.61,8.42,8.42c4.77-5.52,10.17-9.99,16.53-13.57c-2.72-2.71-5.43-5.43-8.15-8.14
			c-4.13,6.71-9.74,11.64-16.78,15.15C974.75,621.65,980.77,631.92,987.62,628.51L987.62,628.51z"/>
	</g>
</g>
<g>
	<g>
		<path class="st0" d="M1020.33,543.76c-0.9-21.08-1.8-42.15-2.71-63.23c-0.33-7.63-12.23-7.67-11.91,0
			c0.9,21.08,1.8,42.15,2.71,63.23C1008.75,551.39,1020.66,551.43,1020.33,543.76L1020.33,543.76z"/>
	</g>
</g>
<g>
	<g>
		<path class="st0" d="M915.82,413.26c-14.92,9.98-23.01,26.87-37.59,37.06c-4.8,3.35-3.13,10.83,3,11.09
			c9.48,0.41,18.85-0.52,28.1-2.64c2.26-0.52,4.7-3.27,4.37-5.74c-0.52-3.92-1.01-8.03-0.7-11.99c0.3-3.83,2.23-5.65,4.89-8.21
			c-3.12-2.4-6.23-4.81-9.35-7.21c-2.02,3.68-4.04,7.37-6.06,11.05c-0.93,1.7-1.86,3.4-2.8,5.1c-0.47,0.85-0.93,1.7-1.4,2.55
			c-1.81,2.62-0.99,2.51,2.44-0.33c1.4,0.58,2.81,1.16,4.21,1.74c-1.6-1.56-1.26-6.84-1.3-8.98c-0.06-3.42,0.21-6.84,0.47-10.25
			c0.49-6.34-8.06-7.47-11.09-3c-4.35,6.41-8.09,13.12-11.26,20.18c-3.1,6.94,7.15,13,10.28,6.01c3.16-7.07,6.9-13.78,11.26-20.18
			c-3.7-1-7.4-2-11.09-3c-0.57,7.46-2.82,26.22,6.94,29.19c5.03,1.53,7.8-2.39,9.89-6.21c3.26-5.95,6.52-11.9,9.78-17.85
			c3.24-5.92-4.41-11.96-9.35-7.21c-3.38,3.25-6.51,6.76-7.72,11.41c-1.42,5.47-0.69,11.68,0.03,17.2c1.46-1.91,2.91-3.83,4.37-5.74
			c-8.24,1.89-16.49,2.58-24.93,2.22c1,3.7,2,7.4,3,11.09c14.64-10.23,22.81-27.17,37.59-37.06
			C928.17,419.3,922.21,408.98,915.82,413.26L915.82,413.26z"/>
	</g>
</g>
<g>
	<g>
		<path class="st0" d="M893.08,487.66c-6.35-1.15-12.71-1.8-19.17-1.83c1.71,2.99,3.43,5.97,5.14,8.96
			c1.77-4.13,9.69-1.59,13.05-0.55c3.72,1.15,10.24,7.31,9.1,11.37c-0.63,2.23-3.37,4.87-4.52,6.97c-1.34,2.43-2.48,4.95-3.5,7.52
			c-1.05,2.62-1.92,5.29-2.58,8.04c-0.42,1.74-0.41,6.52-1.47,7.9c1.19-0.91,2.37-1.82,3.56-2.74c1.62-0.35,2,0.27,0.05-0.35
			c-1.33-0.42-2.73-0.73-4.08-1.08c-2.43-0.63-4.84-1.17-7.33-1.5c-4.95-0.65-9.34-0.01-13.85,2.15c2,3.43,4.01,6.85,6.01,10.28
			c12.8-7.41,14.69-23.08,6.74-34.71c-1.02-1.49-2.13-2.92-3.06-4.48c-0.66-1.09-1.16-4.44-1.8-5.06c-3.33-1.08-4.05-1.01-2.17,0.21
			c0.54,0.64,0.94,1.37,1.2,2.17c0.5,1.39,0.52,2.92,0.4,4.38c-0.35,4.29-2.3,8.56-3.68,12.6c-1.71,4.99-3.42,9.98-5.13,14.97
			c3.9,0.53,7.8,1.06,11.69,1.58c-0.93-9.09-2.25-19.14,1.67-27.75c0.63-1.39,1.94-4.49,3.38-5.21c-1.07,0.54,1.01,0.28,2.07,0.68
			c3.51,1.34,6.47,3.77,8.95,6.54c3.23,3.6,10.97,14.05,3.35,16.64c-1.23,0.42-4.19,1.44-5.47,1.02c0.79,0.7,0.82,0.47,0.09-0.68
			c-0.37-1.14-0.68-2.3-0.94-3.47c-1.01-4.93-0.62-9.79,0.7-14.61c-3.63,0.47-7.25,0.95-10.88,1.42c2.45,4.65,3.7,9.5,3.83,14.74
			c0.12,4.64,6.78,8.52,10.16,4.21c4.46-5.69,6.89-11.97,6.53-19.28c-0.39-7.62-12.29-7.67-11.91,0c0.2,3.96-0.53,7.66-3.04,10.86
			c3.39,1.4,6.78,2.81,10.16,4.21c-0.19-7.38-2.01-14.23-5.46-20.75c-2.43-4.59-9.57-3.37-10.88,1.42
			c-2.17,7.91-2.42,16.56,0.23,24.4c2.57,7.61,8.19,10.22,15.9,8.88c6.15-1.06,12.1-3.46,14.82-9.49
			c2.92-6.48,0.54-13.85-2.78-19.69c-3.24-5.69-7.7-10.73-13.15-14.38c-4.88-3.27-13-6.87-18.42-3.13
			c-13.34,9.18-12.26,29.52-10.85,43.42c0.67,6.59,9.43,8.19,11.69,1.58c2.03-5.93,4.07-11.85,6.1-17.78
			c1.69-4.96,3.46-10.13,3.15-15.45c-0.44-7.7-7.24-19.78-16.66-15.68c-9.99,4.35-6.55,17.56-1.88,24.43
			c2.34,3.44,5.37,6.77,5.25,11.17c-0.11,4.15-2.38,7.73-5.92,9.78c-6.72,3.89-0.82,13.55,6.01,10.28
			c8.04-3.85,24.36,9.32,27.32-4.02c1.26-5.65,1.85-11.06,4.25-16.44c2.23-5,6.91-9.42,8.3-14.65c1.35-5.1-2.05-10.68-4.78-14.77
			c-3.01-4.53-6.73-7.89-11.9-9.73c-8.76-3.13-23.4-4.95-27.9,5.57c-1.72,4.01,0.21,8.94,5.14,8.96c5.39,0.02,10.7,0.44,16,1.4
			C897.4,500.5,900.62,489.03,893.08,487.66L893.08,487.66z"/>
	</g>
</g>
<g>
	<g>
		<path class="st0" d="M951.95,533.76c5.91,0.26,11.83,0.65,17.75,0.7c4.21,0.04,9.82,0.43,12.73-3.26
			c3.19-4.05,1.4-10.65,0.89-15.31c-0.6-5.42-1.2-10.9-2.25-16.26c-1.41-7.26-5.92-19.37-14.98-19.63c-4.9-0.14-9.83,3.82-14.2,5.67
			c-5.71,2.43-11.67,4.23-17.71,5.67c-2.34,0.56-4.6,3.23-4.37,5.74c0.63,6.92,4.25,11.88,9.66,16.06c2.66,2.05,5.58,3.78,7.97,6.16
			c2.01,2,3.53,4.13,6.53,4.7c7.62,1.44,11.2-5.51,12.79-11.68c1.63-6.32,3.52-14.9-1.87-19.95c-4.61-4.31-11.92-2.94-15.54,1.85
			c-4.11,5.43-2.86,12.54,0.81,17.84c3.39,4.9,8.49,10.92,15.13,8.45c7.3-2.72,7.76-10.82,5.21-17.07
			c-2.91-7.12-12.62-4.46-11.48,3.17c1.28,8.56,3.09,17,5.44,25.33c2.92-2.24,5.83-4.48,8.75-6.72c-4.57-2.43-6.01-7.42-10.73-9.39
			c-1.82-0.76-4.52,0.13-5.79,1.53c-1.81,1.99-2.28,3.97-1.73,6.59c0.56,2.68,3.23,4.19,5.74,4.37c0.11,0.01,0.22,0.02,0.33,0.02
			c7.65,0.55,7.61-11.36,0-11.91c-0.11-0.01-0.22-0.02-0.33-0.02c1.91,1.46,3.83,2.91,5.74,4.37c-0.03-0.16-0.06-0.31-0.1-0.47
			c-0.51,1.93-1.02,3.86-1.53,5.79c0.1-0.11,0.2-0.22,0.3-0.33c-1.93,0.51-3.86,1.02-5.79,1.53c0.24,0.1,0.47,0.2,0.71,0.29
			c-1.19-0.91-2.37-1.82-3.56-2.74c3.03,4.44,5.87,8.05,10.73,10.63c4.49,2.38,10.2-1.56,8.75-6.72
			c-2.34-8.34-4.15-16.77-5.44-25.33c-3.83,1.06-7.65,2.11-11.48,3.17c0.21,0.51,0.77,2.98,1.16,3.22c0.98-0.25,1.95-0.5,2.93-0.74
			c-0.36-0.38-0.72-0.77-1.07-1.15c-0.85-1.71-2.38-3.56-3.36-5.25c-0.49-0.85,0.22-0.72-0.33-1.09c-1.99-1.33-1.58,0.44-1.86,1.59
			c-0.4,1.64-2.29,7.21-1.92,8.59c-0.57,1.02-0.07,1.35,1.48,1c1.71,0.63,2.15,0.56,1.32-0.21c-0.09-0.64-1.64-1.8-2.1-2.24
			c-1.56-1.49-3.33-2.77-5.07-4.04c-3.04-2.22-8.09-4.96-8.47-9.2c-1.46,1.91-2.91,3.83-4.37,5.74c7.66-1.83,15.05-4.38,22.23-7.61
			c1.58-0.71,3.54-1.36,4.95-2.39c2.06-0.78,2.19-1.05,0.38-0.81c0.53,0.44,0.98,0.95,1.35,1.52c1.82,2.46,2.58,5.59,3.19,8.54
			c0.43,2.07,2.59,23.07,2.83,23.09c0.57-0.9,1.14-1.79,1.71-2.69c-1.14,0.06-2.29,0.08-3.43,0.08c-1.72,0-3.44-0.06-5.16-0.13
			c-4.48-0.17-8.97-0.39-13.45-0.58C944.29,521.52,944.31,533.43,951.95,533.76L951.95,533.76z"/>
	</g>
</g>
<g>
	<g>
		<path class="st0" d="M937.69,572.79c2.42,5.87,4.76,11.77,6.98,17.72c1.1,2.94,2.34,5.91,3.06,8.97c0.65,2.76-0.24,5.51,0.42,8.2
			c1.08,4.43,6.09,6.56,9.94,4.13c4.8-3.03,8.85-8.88,12.69-13.03c5.98-6.46,19.19-17.26,9.85-26.34
			c-4.03-3.92-10.04-3.78-15.27-4.22c-5.02-0.43-11.57-2.21-15.28,2.23c-1.61,1.93-2.49,4.92-0.93,7.21
			c2.34,3.44,0.82,9.04,2.22,13.06c1.18,3.39,5.36,5.85,8.75,3.56c1.94-1.31,3.37-2.76,4.71-4.69c0.64-0.93,1.86-3.29,2.24-3.4
			c7.39-2.01,4.25-13.5-3.17-11.48c-2.65,0.72-4.54,2.1-6.27,4.21c-1.14,1.39-2.03,4.06-3.52,5.07c2.92,1.19,5.83,2.37,8.75,3.56
			c-1.86-5.34,0-10.89-3.42-15.9c-0.31,2.4-0.62,4.81-0.93,7.21c-1.68,0.63-1.46,0.87,0.66,0.73c0.89,0.08,1.77,0.15,2.66,0.23
			c1.77,0.15,3.54,0.3,5.31,0.45c0.89,0.08,1.77,0.15,2.66,0.23c2.01,0.19,2.44,0.28,1.3,0.26c0.09,0.74-3.28,3.66-3.72,4.14
			c-2.49,2.75-5,5.47-7.53,8.18c-2.54,2.71-5.22,6.54-8.13,8.74c1.53-0.2,3.06-0.4,4.59-0.6c-0.19-0.05-0.37-0.1-0.56-0.15
			c1.39,1.39,2.77,2.77,4.16,4.16c-0.58-1.52,0.08-5-0.29-7.06c-0.61-3.42-1.91-6.68-3.11-9.92c-2.32-6.25-4.77-12.45-7.31-18.61
			C946.29,562.64,934.77,565.7,937.69,572.79L937.69,572.79z"/>
	</g>
</g>
<g>
	<g>
		<path class="st0" d="M884.28,578.97c5.09-0.48,10.17-0.98,15.26-1.45c1.22-0.11,3.56-0.64,4.8-0.15c1.67,0.66,3.22,3.82,3.97,5.32
			c3.83,7.67,5.22,17.17,7.49,25.39c2.44-2.44,4.88-4.88,7.32-7.32c-5.64-2.25-8.49-9.28-11.97-13.81
			c-3.64-4.74-8.29-8.2-13.15-11.61c-6.29-4.41-12.24,5.91-6.01,10.28c5.96,4.18,9.79,8.7,13.94,14.64
			c3.77,5.41,7.84,9.5,14.03,11.97c4.36,1.74,8.43-3.32,7.32-7.32c-2.94-10.66-4.63-23.57-11.5-32.53c-3.07-4.01-6.77-6.93-12-7.06
			c-6.4-0.16-13.13,1.13-19.51,1.73C876.72,567.78,876.64,579.7,884.28,578.97L884.28,578.97z"/>
	</g>
</g>
<g>
	<g>
		<path class="st0" d="M898.92,584.22c0.5,0.25,1,0.51,1.5,0.76c0.68,0.44,1.42,0.67,2.21,0.71c0.79,0.18,1.58,0.14,2.37-0.11
			c0.77-0.18,1.45-0.54,2.02-1.07c0.65-0.42,1.16-0.98,1.53-1.67c0.2-0.47,0.4-0.95,0.6-1.42c0.28-1.06,0.28-2.11,0-3.17
			c-0.2-0.47-0.4-0.95-0.6-1.42c-0.53-0.89-1.24-1.61-2.14-2.14c-0.5-0.26-1-0.51-1.5-0.76c-0.68-0.44-1.42-0.67-2.21-0.71
			c-0.79-0.18-1.58-0.14-2.37,0.11c-0.77,0.18-1.45,0.54-2.02,1.07c-0.65,0.42-1.16,0.98-1.53,1.67c-0.2,0.47-0.4,0.95-0.6,1.42
			c-0.28,1.06-0.28,2.11,0,3.17c0.2,0.47,0.4,0.95,0.6,1.42C897.32,582.98,898.03,583.69,898.92,584.22L898.92,584.22z"/>
	</g>
</g>
<g>
	<g>
		<path class="st0" d="M1012.94,598.59c4.78-3.12,5.31-7.08,6.98-12.11c1.4-4.22,7.78-5.94,11.6-7.41
			c-2.24-2.92-4.48-5.83-6.72-8.75c-0.06,0.12-0.12,0.25-0.17,0.37c-1.21,2.6-0.92,5.03,0.93,7.21c0.1,0.12,0.21,0.24,0.31,0.36
			c1.3,1.53,3.92,2.14,5.79,1.53c1.63-0.53,2.89-1.27,4.3-2.23c6.3-4.28,0.35-14.6-6.01-10.28c-0.5,0.32-0.99,0.66-1.46,1.03
			c1.93,0.51,3.86,1.02,5.79,1.53c-0.1-0.12-0.21-0.24-0.31-0.36c0.31,2.4,0.62,4.81,0.93,7.21c0.06-0.12,0.12-0.25,0.17-0.37
			c1.93-4.15-1.38-10.8-6.72-8.75c-5.17,1.99-10.95,4.06-15.18,7.77c-1.9,1.67-3.27,3.71-4.16,6.07c-0.56,1.51-0.68,5.95-2.09,6.87
			C1000.53,592.48,1006.49,602.8,1012.94,598.59L1012.94,598.59z"/>
	</g>
</g>
<g>
	<g>
		<path class="st0" d="M1026.41,540.4c0.01-9.27-2.74-17.93-5.46-26.68c-2.79-8.96-5.19-18.1-2-27.27
			c-1.91,1.46-3.83,2.91-5.74,4.37c4.4,0.35,8.81,0.7,13.21,1.05c4.23,0.34,8.97,0.09,13.05,1.24c-1.19-0.91-2.37-1.82-3.56-2.74
			c2.35,4.06,3.14,9.79,4.06,14.34c1.01,5.03,1.63,10.1,1.88,15.22c0.12,2.51,0.16,5.02,0.12,7.53c-0.01,0.53-0.22,4.93,0.18,4.47
			c-0.84,0.99-5.67,1.16-6.98,1.43c-2.57,0.52-5.14,1.03-7.71,1.55c2.44,1.39,4.88,2.77,7.32,4.16
			c-4.98-15.63,1.35-32.47-4.84-47.99c-2.4-6.03-11.43-5.51-11.69,1.58c-0.19,5.04-0.38,10.08-0.56,15.12
			c2.51-1.91,5.02-3.83,7.54-5.74c1.8,0.56,1.37,0.11,3.48-0.45c0.28-0.07,2.77-0.29,2.8-0.38c-1.34-1.92-1.78-2.1-1.32-0.54
			c0.17,0.96,0.32,1.92,0.46,2.88c0.25,1.72,0.45,3.44,0.62,5.16c0.67,6.78,0.8,13.57,0.53,20.37c-0.31,7.66,11.6,7.65,11.91,0
			c0.36-8.97-0.06-17.88-1.3-26.78c-0.97-6.96-2.52-13.25-10.89-13.01c-6.41,0.19-13.3,2.5-16.33,8.59
			c-3.17,6.38,0.27,13.58,6.89,15.62c3.83,1.18,7.4-2,7.54-5.74c0.19-5.04,0.38-10.08,0.56-15.12c-3.9,0.53-7.8,1.06-11.69,1.58
			c6.11,15.31-0.16,32.3,4.84,47.99c1.03,3.23,4.05,4.81,7.32,4.16c7.43-1.49,19.43-1.36,22.32-10.03c1.31-3.92,1.01-8.6,0.94-12.66
			c-0.08-5.25-0.57-10.47-1.32-15.66c-0.72-4.97-1.73-9.9-3.09-14.74c-1.11-3.95-2.03-9.44-6.12-11.38
			c-4.01-1.9-9.73-1.39-14.09-1.74c-5.35-0.43-10.7-0.85-16.04-1.28c-2.71-0.22-4.92,2.02-5.74,4.37
			c-6.93,19.93,7.06,37.52,7.03,57.12C1014.49,548.06,1026.4,548.07,1026.41,540.4L1026.41,540.4z"/>
	</g>
</g>
<g>
	<g>
		<path class="st0" d="M997.37,422.58c0.99,5.11,3.86,9.21,6.46,13.61c3.27,5.54,2.38,11.36,4.2,17.29
			c1.57,5.14,5.44,7.07,10.55,7.09c6.88,0.03,13.78-0.6,20.59-1.48c3.89-0.5,8.18-4.88,5.14-8.96c-2.23-3-4.33-6.5-7.01-9.14
			c-2.31-2.28-5.14-3.08-7.91-4.59c-6.57-3.58-12.06-10.65-16.79-16.29c-1.93,3.32-3.86,6.63-5.79,9.95
			c4.51,1.32,8.7,3.3,12.41,6.23c5.9,4.66,14.37-3.46,8.42-8.42c-4.35-3.62-8.7-7.25-13.05-10.87c-4.17-3.48-12.02-0.34-9.95,5.79
			c1.43,4.24,3.24,8.35,5.77,12.05c1.97,2.88,7.13,7.2,6.84,10.97c-0.23,2.98-3.72,6.06-5.35,8.32c-2.37,3.27-3.7,6.66-4.06,10.69
			c3.9-0.53,7.8-1.06,11.69-1.58c-1.73-10.48-3.45-20.97-5.18-31.45c-1.24-7.54-12.72-4.34-11.48,3.17
			c1.73,10.48,3.45,20.97,5.18,31.45c1.16,7.06,11.14,4.62,11.69-1.58c0.29-3.21,3.74-6.23,5.52-8.71c2.43-3.38,4.07-7.2,3.89-11.42
			c-0.21-4.71-2.79-8.56-5.61-12.14c-3.16-4.02-5.77-8.04-7.42-12.92c-3.32,1.93-6.63,3.86-9.95,5.79
			c4.35,3.62,8.7,7.25,13.05,10.87c2.81-2.81,5.61-5.61,8.42-8.42c-5.38-4.25-11.06-7.36-17.66-9.29c-6.1-1.79-9.4,5.65-5.79,9.95
			c4.7,5.6,9.77,11.11,15.53,15.64c2.44,1.92,4.88,2.78,7.54,4.25c2.96,1.63,4.8,5.06,6.78,7.72c1.71-2.99,3.43-5.97,5.14-8.96
			c-5.21,0.67-10.43,1.16-15.67,1.37c-1.31,0.05-2.62,0.09-3.93,0.11c-2.55-0.33-2.63,0.04-0.22,1.1c0.24-0.16-0.89-6.83-0.99-7.53
			c-0.61-4.4-1.99-8.22-4.24-12.05c-2.08-3.55-4.46-6.65-5.25-10.77C1007.4,411.9,995.92,415.08,997.37,422.58L997.37,422.58z"/>
	</g>
</g>
<g>
	<g>
		<path class="st0" d="M948.54,419.87c-4.44,5.55-12.71,12.73-11.6,20.58c1.14,8,10.02,10.04,16.7,11.3
			c6.66,1.25,15.63,2.87,21.9-0.62c5.74-3.19,10.12-10.87,10.12-17.38c-0.01-7.56-6.05-12.08-12.72-13.99
			c-6.02-1.72-16.55-2.67-22.02,1.13c-4.71,3.27-9.89,13.05-4.2,17.57c5.77,4.58,17.64,3.85,24.42,3.01
			c4.18-0.51,6.34-3.37,5.74-7.54c-0.1-0.66-0.19-1.33-0.29-1.99c-3.32,1.93-6.63,3.86-9.95,5.79c2.94,3.41,4.83,7.22,6,11.55
			c1.54,5.66,9.94,5.67,11.48,0c1.61-5.95,2.16-11.97,1.44-18.1c-0.88-7.52-12.8-7.61-11.91,0c0.6,5.14,0.34,9.93-1.01,14.94
			c3.83,0,7.65,0,11.48,0c-1.73-6.36-4.77-11.83-9.07-16.8c-4.35-5.04-10.7,0.6-9.95,5.79c0.1,0.66,0.19,1.33,0.29,1.99
			c1.91-2.51,3.83-5.02,5.74-7.54c-5.2,0.64-12.93,1.51-17.81-0.92c0.91,1.19,1.82,2.37,2.74,3.56c0.41,1.82,1.83-1.67,2.17-2.1
			c-1.11,1.4-1.36,0.81,0.78,0.57c3.26-0.37,6.71-0.44,9.92,0.33c1.93,0.47,4.71,1.02,4.83,3.29c0.1,1.87-2.18,5.24-3.69,6.21
			c-3.89,2.5-12.54,0.04-16.69-0.97c-1.35-0.33-2.72-0.66-4.02-1.15c-0.65-0.45-0.86-0.28-0.63,0.51c0.29-0.47,0.59-0.94,0.88-1.41
			c2.58-2.92,4.9-6.15,7.34-9.2C961.7,422.36,953.33,413.88,948.54,419.87L948.54,419.87z"/>
	</g>
</g>
<g>
	<g>
		<path class="st0" d="M907.03,426.3c0.13-0.25,0.25-0.5,0.38-0.75c0.44-0.68,0.67-1.42,0.71-2.21c0.18-0.79,0.14-1.58-0.11-2.37
			c-0.18-0.77-0.54-1.45-1.07-2.02c-0.42-0.65-0.98-1.16-1.67-1.53c-0.47-0.2-0.95-0.4-1.42-0.6c-1.06-0.28-2.11-0.28-3.17,0
			c-0.47,0.2-0.95,0.4-1.42,0.6c-0.89,0.53-1.61,1.24-2.14,2.14c-0.13,0.25-0.25,0.5-0.38,0.75c-0.43,0.68-0.67,1.42-0.71,2.21
			c-0.18,0.79-0.14,1.58,0.11,2.37c0.18,0.77,0.54,1.45,1.07,2.02c0.42,0.65,0.98,1.16,1.67,1.53c0.47,0.2,0.95,0.4,1.42,0.6
			c1.06,0.28,2.11,0.28,3.17,0c0.47-0.2,0.95-0.4,1.42-0.6C905.79,427.91,906.5,427.2,907.03,426.3L907.03,426.3z"/>
	</g>
</g>
<g>
	<g>
		<path class="st0" d="M1018.98,581.69c-0.05,0.13-0.11,0.26-0.16,0.39c0.51-0.88,1.02-1.75,1.53-2.63c-0.1,0.09-0.2,0.19-0.3,0.28
			c0.88-0.51,1.75-1.02,2.63-1.53c0.48,0.01,0.96,0.01,1.43-0.01c0.88,0.51,1.75,1.02,2.63,1.53c0.71,0.56,0.58,2.27,0.6,0.9
			c0.01-0.92-0.02-1.84-0.03-2.76c-0.02-1.71-0.03-3.41-0.05-5.12c-0.08-7.66-11.98-7.68-11.91,0c0.04,4.2-0.86,9.97,1.5,13.65
			c1.47,2.3,4.03,3.79,6.79,3.69c3.45-0.13,5.56-2.22,6.82-5.23c1.25-2.97-1.34-6.55-4.16-7.32
			C1022.87,576.59,1020.24,578.71,1018.98,581.69L1018.98,581.69z"/>
	</g>
</g>
<g>
	<g>
		<path class="st0" d="M968.83,657.02c-0.13,0.13-0.25,0.25-0.38,0.38c-0.58,0.54-0.99,1.18-1.23,1.92
			c-0.37,0.71-0.54,1.47-0.51,2.29c-0.03,0.82,0.14,1.58,0.51,2.29c0.24,0.74,0.65,1.38,1.23,1.92c0.4,0.31,0.8,0.62,1.2,0.93
			c0.93,0.54,1.93,0.81,3,0.81c0.53-0.07,1.06-0.14,1.58-0.21c1.01-0.28,1.88-0.79,2.63-1.53c0.13-0.13,0.25-0.25,0.38-0.38
			c0.58-0.54,0.99-1.18,1.23-1.92c0.37-0.71,0.54-1.47,0.51-2.29c0.03-0.82-0.14-1.58-0.51-2.29c-0.24-0.74-0.65-1.38-1.23-1.92
			c-0.4-0.31-0.8-0.62-1.2-0.93c-0.93-0.54-1.93-0.81-3-0.81c-0.53,0.07-1.06,0.14-1.58,0.21
			C970.45,655.77,969.58,656.28,968.83,657.02L968.83,657.02z"/>
	</g>
</g>
<g>
	<g>
		<path class="st0" d="M988.42,511.21c-8.02-6.09-7.99-17.86-16.07-23.94c-2.46-1.85-6.83-0.5-8.15,2.14
			c-5.73,11.48,12.89,12.44,19.39,14.44c-1.19-0.91-2.37-1.82-3.56-2.74c0.1,0.23,0.21,0.45,0.31,0.68c-0.2-1.53-0.4-3.06-0.6-4.59
			c1.02-1.48,0.81-1.48-0.62-0.01c-0.87,0.74-1.77,1.45-2.7,2.12c-1.33,0.99-2.7,1.92-4.07,2.84c-2.99,1.99-6.06,3.87-9.11,5.78
			c-6.27,3.93-12.38,8.08-17.75,13.2c-5.56,5.3,2.87,13.71,8.42,8.42c9.23-8.8,21.03-14.09,31.04-21.87
			c3.8-2.96,8.79-7.27,5.35-12.57c-1.86-2.86-4.85-2.96-7.89-3.55c-1.8-0.35-3.58-0.78-5.35-1.28c-1.1-0.32-4.12-2.33-2.89-0.27
			c0,2,0,4.01,0,6.01c0.1-0.2,0.2-0.39,0.29-0.59c-2.72,0.71-5.43,1.42-8.15,2.14c1.59,1.19,2.43,4.43,3.2,6.14
			c1.03,2.28,2.05,4.57,3.27,6.76c2.46,4.43,5.58,7.99,9.61,11.04C988.51,526.12,994.45,515.78,988.42,511.21L988.42,511.21z"/>
	</g>
</g>
<g>
	<g>
		<path class="st0" d="M1024.04,506.92c-2.24,3.02-4.26,6.17-6.07,9.46c3.12-0.4,6.23-0.8,9.35-1.2c0.32,0.51,0.64,1.02,0.96,1.54
			c0,1.06,0,2.11,0,3.17c-0.1,0.21-0.21,0.43-0.31,0.64c1.6-2.68,0.69-6.65-2.14-8.15c-2.87-1.52-6.44-0.72-8.15,2.14
			c-1.73,2.9-1.32,6.78,1.21,9.09c2.75,2.51,7.42,2.29,9.35-1.2c1.82-3.29,3.84-6.44,6.07-9.46c1.86-2.51,0.5-6.75-2.14-8.14
			C1029.07,503.14,1026.02,504.23,1024.04,506.92L1024.04,506.92z"/>
	</g>
</g>
</svg>
