<svg xmlns="http://www.w3.org/2000/svg" xmlns:xlink="http://www.w3.org/1999/xlink" id="exportSvg" width="600" height="401"><defs/><rect width="600" height="401" transform="translate(0, 0)" fill="rgb(255, 255, 255)" style="fill: rgb(255, 255, 255);"/><g><g id="__svelte-dw-svg" clip-path="url(#rect-mask-tgdRFD1VEKdpUlCeKFyG_)"><clipPath id="rect-mask-tgdRFD1VEKdpUlCeKFyG_"><rect x="0" y="0" width="600" height="401"/></clipPath><g id="outer-container-svg dw-chart-styles-svg datawrapper-X2anW-1k4ntkn-svg svelte-crzbxb-svg static-svg" clip-path="url(#rect-mask-LGpzysE9rxh8ydqm2vcTm)"><clipPath id="rect-mask-LGpzysE9rxh8ydqm2vcTm"><rect x="0" y="0" width="600" height="401"/></clipPath><g id="header-svg"><text transform="translate(0, 0)"><tspan fill="rgb(0,0,0)" x="0" y="22" style="font-family: Roboto; font-weight: 700; font-stretch: 100%; font-size: 22px;">Conservative employers buck remote work</tspan></text><text transform="translate(0, 35)"><tspan fill="rgb(24,24,24)" x="0" y="14" style="font-family: Roboto; font-weight: 400; font-stretch: 100%; font-size: 14px;">RedBalloon advertises far fewer flexible roles than US workplaces offer</tspan></text></g><g id="chart-svg"><rect width="14" height="14" transform="translate(0, 77)" fill="rgb(24,161,205)" style="fill: rgb(24, 161, 205); opacity: 0.6;"/><text transform="translate(19, 77)"><tspan fill="rgba(24,24,24,0.36)" x="0" y="12" style="font-family: Roboto; font-weight: 400; font-stretch: 100%; font-size: 12px;">Remote</tspan></text><rect width="14" height="14" transform="translate(0, 93)" fill="rgb(139,212,112)" style="fill: rgb(139, 212, 112); opacity: 0.6;"/><text transform="translate(19, 93)"><tspan fill="rgba(24,24,24,0.36)" x="0" y="12" style="font-family: Roboto; font-weight: 400; font-stretch: 100%; font-size: 12px;">Hybrid</tspan></text><rect width="14" height="14" transform="translate(0, 109)" fill="rgb(199,30,29)" style="fill: rgb(199, 30, 29);"/><text transform="translate(19, 109)"><tspan fill="rgb(24,24,24)" x="0" y="12" style="font-family: Roboto; font-weight: 700; font-stretch: 100%; font-size: 12px;">On-Location</tspan></text><g id="group-svg" clip-path="url(#rect-mask-CefYOaVB7C-8Qj6at2wz5)" transform="translate(96, 72)"><clipPath id="rect-mask-CefYOaVB7C-8Qj6at2wz5"><rect x="0" y="0" width="247" height="247"/></clipPath><g id="pie-svg" transform="translate(123.5, 123.5)"><g id="slice-svg"><path d="M7.562193984734906e-15,-123.5A123.5,123.5,0,0,1,99.91359880530601,72.59147865812044L40.964575510175465,29.762506249829375A50.635,50.635,0,0,0,3.100499533741311e-15,-50.635Z" stroke="rgb(255,255,255)" style="fill: rgb(24, 161, 205); stroke-width: 0.5; opacity: 0.6; stroke-linejoin: bevel; stroke-linecap: butt; stroke: rgb(255, 255, 255);"/></g><g id="slice-svg"><path d="M99.91359880530601,72.59147865812044A123.5,123.5,0,0,1,-123.25630096089154,-7.7546291618701435L-50.53508339396553,-3.1793979563667585A50.635,50.635,0,0,0,40.964575510175465,29.762506249829375Z" stroke="rgb(255,255,255)" style="fill: rgb(139, 212, 112); stroke-width: 0.5; opacity: 0.6; stroke-linejoin: bevel; stroke-linecap: butt; stroke: rgb(255, 255, 255);"/></g><g id="slice-svg highlight-element-svg"><path d="M-123.25630096089154,-7.7546291618701435A123.5,123.5,0,0,1,-2.2686581954204718e-14,-123.5L-9.301498601223934e-15,-50.635A50.635,50.635,0,0,0,-50.53508339396553,-3.1793979563667585Z" stroke="rgb(255,255,255)" style="fill: rgb(199, 30, 29); stroke-width: 0.5; stroke-linejoin: bevel; stroke-linecap: butt; stroke: rgb(255, 255, 255);"/></g></g></g><text transform="translate(297.06988525390625, 148.97218322753906)" style="text-anchor: middle;"><tspan fill="rgba(0,0,0,0.6)" x="0" y="12" style="font-family: Roboto; font-weight: 400; font-stretch: 100%; font-size: 12px;">35%</tspan></text><text transform="translate(189.99911499023438, 270.4201354980469)" style="text-anchor: middle;"><tspan fill="rgba(0,0,0,0.6)" x="0" y="12" style="font-family: Roboto; font-weight: 400; font-stretch: 100%; font-size: 12px;">41%</tspan></text><text transform="translate(159.890380859375, 125.03052520751953)" style="text-anchor: middle;"><tspan fill="rgb(255,255,255)" x="0" y="12" style="font-family: Roboto; font-weight: 700; font-stretch: 100%; font-size: 12px;">24%</tspan></text><text transform="translate(219.4921875, 329)" style="text-anchor: middle;"><tspan fill="rgb(24,24,24)" x="0" y="14" style="font-family: Roboto; font-weight: 400; font-stretch: 100%; font-size: 14px;">Feb 2023 US Workplace Survey</tspan></text><g id="group-svg" clip-path="url(#rect-mask-XSfwKUpFNSUbhmf5Lmn8U)" transform="translate(353, 72)"><clipPath id="rect-mask-XSfwKUpFNSUbhmf5Lmn8U"><rect x="0" y="0" width="247" height="247"/></clipPath><g id="pie-svg" transform="translate(123.5, 123.5)"><g id="slice-svg"><path d="M7.562193984734906e-15,-123.5A123.5,123.5,0,0,1,99.91359880530601,-72.59147865812042L40.964575510175465,-29.76250624982937A50.635,50.635,0,0,0,3.100499533741311e-15,-50.635Z" stroke="rgb(255,255,255)" style="fill: rgb(24, 161, 205); stroke-width: 0.5; opacity: 0.6; stroke-linejoin: bevel; stroke-linecap: butt; stroke: rgb(255, 255, 255);"/></g><g id="slice-svg"><path d="M99.91359880530601,-72.59147865812042A123.5,123.5,0,0,1,111.74614097955342,-52.58374250828647L45.8159178016169,-21.55933442839745A50.635,50.635,0,0,0,40.964575510175465,-29.76250624982937Z" stroke="rgb(255,255,255)" style="fill: rgb(139, 212, 112); stroke-width: 0.5; opacity: 0.6; stroke-linejoin: bevel; stroke-linecap: butt; stroke: rgb(255, 255, 255);"/></g><g id="slice-svg highlight-element-svg"><path d="M111.74614097955342,-52.58374250828647A123.5,123.5,0,1,1,-2.2686581954204718e-14,-123.5L-9.301498601223934e-15,-50.635A50.635,50.635,0,1,0,45.8159178016169,-21.55933442839745Z" stroke="rgb(255,255,255)" style="fill: rgb(199, 30, 29); stroke-width: 0.5; stroke-linejoin: bevel; stroke-linecap: butt; stroke: rgb(255, 255, 255);"/></g></g></g><text transform="translate(516.02001953125, 110.92228698730469)" style="text-anchor: middle;"><tspan fill="rgba(0,0,0,0.6)" x="0" y="12" style="font-family: Roboto; font-weight: 400; font-stretch: 100%; font-size: 12px;">15%</tspan></text><text transform="translate(551.442626953125, 144.17904663085938)" style="text-anchor: middle;"><tspan fill="rgba(0,0,0,0.6)" x="0" y="12" style="font-family: Roboto; font-weight: 400; font-stretch: 100%; font-size: 12px;">3%</tspan></text><text transform="translate(429.8390808105469, 262.0135192871094)" style="text-anchor: middle;"><tspan fill="rgb(255,255,255)" x="0" y="12" style="font-family: Roboto; font-weight: 700; font-stretch: 100%; font-size: 12px;">82%</tspan></text><text transform="translate(476.5, 329)" style="text-anchor: middle;"><tspan fill="rgb(24,24,24)" x="0" y="14" style="font-family: Roboto; font-weight: 400; font-stretch: 100%; font-size: 14px;">RedBalloon jobs</tspan></text></g><g id="footer-svg"><text transform="translate(0, 388)"><tspan fill="rgb(84,84,84)" x="0" y="11" style="font-family: Roboto; font-weight: 400; font-stretch: 100%; font-size: 11px;">Chart:</tspan><tspan fill="rgb(84,84,84)" dx="2.734375" style="font-family: Roboto; font-weight: 400; font-stretch: 100%; font-size: 11px;">Julie Iles</tspan><tspan fill="rgb(84,84,84)" dx="2.734375" style="font-family: Roboto; font-weight: 400; font-stretch: 100%; font-size: 11px;">•</tspan><tspan fill="rgb(84,84,84)" dx="2.734375" style="font-family: Roboto; font-weight: 400; font-stretch: 100%; font-size: 11px;">Source</tspan><tspan fill="rgb(84,84,84)" style="font-family: Roboto; font-weight: 400; font-stretch: 100%; font-size: 11px;">:</tspan><tspan fill="rgb(84,84,84)" dx="2.734375" style="font-family: Roboto; font-weight: 400; font-stretch: 100%; font-size: 11px;">Pew Research Center &amp; RedBalloon.work</tspan><tspan fill="rgb(84,84,84)" dx="2.734375" style="font-family: Roboto; font-weight: 400; font-stretch: 100%; font-size: 11px;">•</tspan><tspan fill="rgb(84,84,84)" dx="2.734375" style="font-family: Roboto; font-weight: 400; font-stretch: 100%; font-size: 11px;">Created with</tspan><tspan fill="rgb(84,84,84)" dx="2.734375" style="font-family: Roboto; font-weight: 400; font-stretch: 100%; font-size: 11px;">Datawrapper</tspan></text></g></g></g></g></svg>